0.16m3min_grf.mot
version=1
nRows=17
nColumns 19
inDegrees=yes
endheader
time	1_ground_force_vx	1_ground_force_vy	1_ground_force_vz	1_ground_force_px	1_ground_force_py	1_ground_force_pz	1_ground_torque_x	1_ground_torque_y	1_ground_torque_z	2_ground_force_vx	2_ground_force_vy	2_ground_force_vz	2_ground_force_px	2_ground_force_py	2_ground_force_pz	2_ground_torque_x	2_ground_torque_y	2_ground_torque_z
            1.253500	           41.784935	          157.551822	            2.543609	           -0.286041	            0.006381	           -0.444378	            0.026305	            0.099183	            0.001601	           14.186109	          172.744262	           11.919698	           -0.302222	            0.005503	           -0.728757	            0.024873	            0.302883	            0.020899
            1.254000	           42.061783	          150.881062	            2.743607	           -0.286558	            0.006384	           -0.445206	            0.066271	            0.237721	            0.004323	           14.163685	          165.931921	           11.519982	           -0.303230	            0.005502	           -0.729490	            0.015587	            0.182608	            0.012678
            1.254500	           42.384145	          143.490035	            2.756975	           -0.286331	            0.006389	           -0.446198	            0.108294	            0.366626	            0.007044	           13.625228	          159.302057	           11.074214	           -0.303242	            0.005500	           -0.728788	            0.019094	            0.223241	            0.015519
            1.255000	           42.477725	          138.080509	            3.100406	           -0.286469	            0.006383	           -0.444870	            0.108971	            0.354227	            0.007954	           12.849904	          153.407607	           10.725030	           -0.303031	            0.005503	           -0.729525	            0.020737	            0.247565	            0.017308
            1.255500	           42.342407	          131.589149	            3.485623	           -0.285843	            0.006385	           -0.445334	            0.099495	            0.309205	            0.008190	           12.025009	          148.250083	           10.237710	           -0.302369	            0.005508	           -0.730271	            0.030411	            0.374925	            0.025891
            1.256000	           41.748719	          125.998636	            3.967556	           -0.285508	            0.006381	           -0.444440	            0.053316	            0.160909	            0.005067	           12.233992	          142.176717	            9.418169	           -0.302149	            0.005510	           -0.730635	            0.027028	            0.314103	            0.020807
            1.256500	           41.200471	          119.507785	            4.216230	           -0.285544	            0.006387	           -0.445695	            0.051505	            0.149398	            0.005271	           12.071642	          135.180093	            8.924000	           -0.303104	            0.005503	           -0.729621	            0.025779	            0.288676	            0.019057
            1.257000	           40.973534	          113.917343	            4.697252	           -0.284529	            0.006382	           -0.444568	            0.023454	            0.065209	            0.002689	           11.903373	          129.840264	            8.576528	           -0.302654	            0.005506	           -0.730006	            0.021625	            0.235878	            0.015581
            1.257500	           41.020407	          108.869716	            4.721351	           -0.284464	            0.006375	           -0.442911	            0.032794	            0.087037	            0.003775	           11.783303	          124.132170	            8.274650	           -0.302036	            0.005512	           -0.731078	            0.011207	            0.118057	            0.007870
            1.258000	           40.975835	          102.560212	            4.740267	           -0.284144	            0.006376	           -0.443224	            0.039771	            0.099544	            0.004601	           11.291133	          117.685795	            8.064160	           -0.302951	            0.005504	           -0.729646	            0.007210	            0.075153	            0.005150
            1.258500	           41.344024	           95.890060	            4.802469	           -0.283674	            0.006383	           -0.444901	            0.117413	            0.272319	            0.013639	           10.420136	          112.343277	            7.763915	           -0.302648	            0.005505	           -0.729514	            0.011340	            0.122260	            0.008449
            1.259000	           41.024606	           92.103042	            5.108025	           -0.282568	            0.006372	           -0.442238	            0.073553	            0.165132	            0.009158	            9.735106	          107.370583	            7.230265	           -0.301375	            0.005511	           -0.730069	            0.016314	            0.179930	            0.012116
            1.259500	           40.889351	           86.512617	            5.588819	           -0.282709	            0.006371	           -0.441988	            0.031540	            0.066732	            0.004311	            9.425602	          102.214585	            6.836582	           -0.301571	            0.005510	           -0.729942	            0.021015	            0.227892	            0.015242
            1.260000	           40.295106	           82.725153	            5.986769	           -0.282197	            0.006365	           -0.440500	           -0.036974	           -0.075907	           -0.005493	            9.257394	           96.874269	            6.629894	           -0.301842	            0.005512	           -0.730694	            0.014565	            0.152413	            0.010431
            1.260500	           39.930182	           75.874004	            6.187587	           -0.282202	            0.006379	           -0.443798	            0.016830	            0.031980	            0.002608	            8.942470	           93.192294	            6.006827	           -0.300328	            0.005522	           -0.732086	            0.013116	            0.136688	            0.008810
            1.261000	           40.022793	           70.826583	            6.165716	           -0.279005	            0.006373	           -0.442245	            0.029442	            0.052102	            0.004536	            9.057417	           87.300053	            5.938833	           -0.300921	            0.005516	           -0.731011	           -0.002579	           -0.024853	           -0.001691
            1.261500	           39.610865	           65.959723	            6.054158	           -0.281129	            0.006374	           -0.442682	           -0.004011	           -0.006680	           -0.000613	            8.559286	           82.510838	            5.781185	           -0.299469	            0.005524	           -0.731811	            0.003512	            0.033852	            0.002372
